<svg viewBox="0 0 512 512" xmlns="http://www.w3.org/2000/svg">
  <defs>
    <clipPath id="clip">
      <rect width="512" height="512" rx="96"/>
    </clipPath>
  </defs>
  <g clip-path="url(#clip)">
    <!-- GRID -->
    <rect x="0" y="0" width="128" height="128" fill="#e53935"/>
    <rect x="128" y="0" width="128" height="128" fill="#2c5fa3"/>
    <rect x="256" y="0" width="128" height="128" fill="#4b86b4"/>
    <rect x="384" y="0" width="128" height="128" fill="#6aaed6"/>
    <rect x="0" y="128" width="384" height="128" fill="#9ccc3c"/>
    <rect x="384" y="128" width="128" height="128" fill="#4f86c6"/>
    <rect x="0" y="256" width="128" height="128" fill="#7fbf3a"/>
    <rect x="128" y="256" width="256" height="128" fill="#9ccc3c"/>
    <rect x="384" y="256" width="128" height="128" fill="#2c5fa3"/>
    <rect x="0" y="384" width="128" height="128" fill="#4f86c6"/>
    <rect x="128" y="384" width="128" height="128" fill="#2d6fa3"/>
    <rect x="256" y="384" width="128" height="128" fill="#2c5fa3"/>
    <rect x="384" y="384" width="128" height="128" fill="#9e9e9e"/>
    <!-- U -->
    <path d="
      M155 158
      v121
      a90 75 0 0 0 180 0
      v-121
    "
      fill="none"
      stroke="#f2f2f2"
      stroke-width="60"
      stroke-linecap="round"
    />
  </g>
</svg>
